<svg width="88" height="88" viewBox="0 0 88 88" fill="none" xmlns="http://www.w3.org/2000/svg">
<path d="M87.0854 67.6775C83.9504 68.475 82.0117 67.7118 80.2723 65.0993C76.3673 59.2487 72.0567 53.6662 67.8973 47.9806C67.3611 47.245 66.8042 46.5231 66.1098 45.6087C61.1873 52.25 56.2717 58.575 51.6586 65.1543C50.0086 67.5056 48.2761 68.53 45.1961 67.6981L63.7036 42.8587L46.4748 20.4256C49.4379 19.8481 51.4867 20.1437 53.3017 22.7975C57.3098 28.655 61.7304 34.2306 66.1373 40.1293C70.5717 34.2512 74.9373 28.6687 79.0623 22.8662C80.7192 20.515 82.4998 19.6212 85.4767 20.4875C83.2217 23.4781 81.0148 26.4206 78.7942 29.3425C75.7967 33.2818 72.8542 37.2693 69.7467 41.1262C68.6398 42.5012 68.8186 43.395 69.8086 44.6943C75.5561 52.25 81.2348 59.8812 87.0854 67.6775ZM0.91418 42.4462C1.40918 39.9643 1.73918 37.4343 2.42668 35.0006C6.55168 20.2675 23.4642 14.1418 35.0829 23.2718C41.8892 28.6275 43.5804 36.1762 43.2436 44.6875H4.88105C4.30355 59.9568 15.2967 69.1762 29.3079 64.4737C34.2236 62.8237 37.1179 58.9737 38.5686 54.1612C39.3042 51.7481 40.5211 51.37 42.7898 52.0575C41.6279 58.08 38.9948 63.1125 33.4948 66.2612C25.2448 70.9775 13.4679 69.4512 7.27355 62.8993C3.61605 59.0493 2.0623 54.2575 1.3748 49.0806C1.27168 48.2556 1.05855 47.4443 0.893555 46.6262C0.907305 45.2329 0.91418 43.8395 0.91418 42.4462V42.4462ZM4.9498 41.4218H39.6204C39.3936 30.3806 32.5186 22.5362 23.1204 22.4675C12.8079 22.385 5.39668 30.0437 4.9498 41.4218V41.4218Z" fill="#CACACA"/>
</svg>
