<svg width="88" height="88" viewBox="0 0 88 88" fill="none" xmlns="http://www.w3.org/2000/svg">
<path fill-rule="evenodd" clip-rule="evenodd" d="M60.5262 29.4331C61.6296 32.6252 62.4244 35.8839 62.6856 39.2616C63.0101 43.4519 62.8616 47.6127 61.9782 51.7342C61.9541 51.8477 61.9033 51.9542 61.8654 52.0642C61.5884 52.0649 61.3058 52.0305 61.0349 52.0725C58.7463 52.432 56.4596 52.8047 54.173 53.1752C51.8094 53.5582 49.4423 53.926 47.0828 54.335C46.2468 54.4794 45.2121 54.3069 44.8746 55.4632C44.8649 55.4949 44.7687 55.5004 44.713 55.5182L44.8271 48.6082L44.7109 31.9349L45.8123 31.7459C47.6136 31.4509 49.4148 31.1519 51.2174 30.8652C53.3686 30.5235 55.5219 30.1914 57.6744 29.858C58.6239 29.7102 59.5747 29.5747 60.5262 29.4331V29.4331Z" fill="#439934"/>
<path fill-rule="evenodd" clip-rule="evenodd" d="M42.4389 75.6622C41.277 74.6632 40.0746 73.7083 38.9608 72.6578C32.9679 67.0052 28.5844 60.3522 26.4256 52.3312C25.831 50.1236 25.4343 47.8803 25.3071 45.5992C25.2177 44.0028 25.0885 42.392 25.2012 40.8038C25.5016 36.5798 26.1121 32.3964 27.351 28.3278L27.4191 28.2329C27.5394 28.3931 27.7126 28.5347 27.7738 28.7155C28.9831 32.2768 30.1835 35.8408 31.3777 39.4068C35.1301 50.6131 38.8776 61.8221 42.6362 73.0256C42.7098 73.2442 42.9002 73.4237 43.037 73.621L42.4389 75.6622V75.6622Z" fill="#45A538"/>
<path fill-rule="evenodd" clip-rule="evenodd" d="M60.5259 29.4332C59.5744 29.5748 58.6229 29.7102 57.6735 29.8567C55.5209 30.1901 53.3677 30.5222 51.2165 30.8639C49.4139 31.1506 47.6126 31.4496 45.8114 31.7446L44.71 31.9336L44.7018 31.2152C44.6653 30.6246 44.6028 30.0347 44.5959 29.4442C44.5484 25.678 44.5189 21.9119 44.4721 18.1458C44.4433 15.7884 44.3999 13.4316 44.3518 11.0749C44.3223 9.61049 44.2906 8.14543 44.2246 6.68311C44.1889 5.8973 44.0624 5.11561 44.0108 4.3298C43.9819 3.87811 44.0218 3.42299 44.0308 2.96924C44.5924 4.05755 45.1418 5.15411 45.7193 6.23418C46.6316 7.94193 48.0849 9.20005 49.3933 10.573C54.5653 15.9987 58.2373 22.3072 60.5259 29.4332V29.4332Z" fill="#46A037"/>
<path fill-rule="evenodd" clip-rule="evenodd" d="M44.7125 55.5177C44.7682 55.4998 44.8651 55.4943 44.874 55.4627C45.2116 54.3063 46.2463 54.4789 47.0823 54.3345C49.4418 53.9261 51.8089 53.5576 54.1725 53.1747C56.4591 52.8041 58.7457 52.4315 61.0344 52.0719C61.3053 52.0293 61.5879 52.0644 61.8649 52.0637C61.4373 53.5899 61.1004 55.1492 60.558 56.6335C59.942 58.3172 59.1967 59.9603 58.4054 61.5711C57.2208 63.9737 55.7546 66.2269 54.0377 68.2832C52.7184 69.8699 51.2479 71.3364 49.7739 72.785C48.9592 73.5859 47.9987 74.2383 47.105 74.9581L46.8733 74.8L46.0387 74.0864L45.1752 72.1937C44.5853 69.9858 44.2636 67.7149 44.2168 65.4301L44.2326 65.0444L44.3502 63.3765C44.3894 62.8073 44.4416 62.2387 44.4657 61.6681C44.5544 59.6179 44.6314 57.5678 44.7125 55.5177V55.5177Z" fill="#409433"/>
<path fill-rule="evenodd" clip-rule="evenodd" d="M44.7123 55.5175C44.6312 57.5676 44.5542 59.6177 44.4669 61.6686C44.4428 62.2392 44.3906 62.8077 44.3514 63.377L43.8255 63.5757C42.6574 60.1368 41.4886 56.7344 40.3453 53.323C38.4547 47.6793 36.5868 42.0267 34.6989 36.3816C33.1741 31.8252 31.6387 27.2723 30.0926 22.7231C30.0205 22.5099 29.8128 22.3436 29.6685 22.1552L33.0345 15.9663C33.15 16.1671 33.3026 16.3547 33.3755 16.5706C34.9344 21.1783 36.4854 25.7887 38.0285 30.4017C40.0332 36.4036 42.0256 42.4103 44.029 48.4129C44.1087 48.6528 44.2407 48.8742 44.3665 49.143L44.8271 48.6067L44.7123 55.5175V55.5175Z" fill="#4FAA41"/>
<path fill-rule="evenodd" clip-rule="evenodd" d="M29.6689 22.1562C29.8133 22.3446 30.0202 22.511 30.0931 22.7241C31.6391 27.2734 33.1746 31.8263 34.6994 36.3827C36.5872 42.0277 38.4552 47.6804 40.3458 53.3241C41.4884 56.7347 42.6572 60.1379 43.8259 63.5767L44.3519 63.3781L44.2343 65.0459L44.1277 65.4302C43.9449 67.2562 43.7909 69.0864 43.5681 70.9083C43.4561 71.8213 43.2182 72.7177 43.0374 73.6218C42.9012 73.4245 42.7101 73.2451 42.6366 73.0264C38.878 61.8222 35.1304 50.6139 31.3781 39.4077C30.1843 35.8414 28.983 32.2776 27.7742 28.7164C27.713 28.5356 27.5404 28.3939 27.4194 28.2338L29.6689 22.1562V22.1562Z" fill="#4AA73C"/>
<path fill-rule="evenodd" clip-rule="evenodd" d="M44.8264 48.6076L44.3658 49.1438C44.2399 48.875 44.1079 48.653 44.0282 48.4137C42.0255 42.4111 40.0324 36.4045 38.0277 30.4026C36.4846 25.7895 34.9336 21.1792 33.3747 16.5715C33.3025 16.3556 33.1499 16.1672 33.0337 15.9671L37.1965 10.4912C37.3278 10.6665 37.5148 10.8226 37.5829 11.0199C38.7386 14.4031 39.8839 17.7904 41.0224 21.1798C42.086 24.345 43.1338 27.5151 44.2097 30.6762C44.2819 30.888 44.5328 31.0378 44.7006 31.2166L44.7088 31.935C44.7487 37.4914 44.7879 43.0498 44.8264 48.6076V48.6076Z" fill="#57AE47"/>
<path fill-rule="evenodd" clip-rule="evenodd" d="M44.7018 31.2153C44.5341 31.0365 44.2831 30.8867 44.2109 30.6749C43.135 27.5138 42.0873 24.3437 41.0237 21.1785C39.8852 17.7891 38.7398 14.4025 37.5841 11.0186C37.5161 10.8213 37.3291 10.6652 37.1978 10.4899C38.5514 9.16443 39.8632 7.79149 41.2712 6.52718C42.5231 5.4038 43.5296 4.1993 43.5757 2.42418C43.5778 2.35061 43.6163 2.27705 43.6754 2.0708L44.0322 2.96868C44.0232 3.42311 43.9827 3.87755 44.0123 4.32924C44.0638 5.11505 44.1903 5.89674 44.2261 6.68255C44.2921 8.14486 44.3237 9.60993 44.3533 11.0743C44.4007 13.4311 44.444 15.7878 44.4736 18.1452C44.5196 21.9114 44.5499 25.6775 44.5973 29.4436C44.6028 30.0355 44.6647 30.6247 44.7018 31.2153V31.2153Z" fill="#60B24F"/>
<path fill-rule="evenodd" clip-rule="evenodd" d="M43.0361 73.6208C43.2169 72.7167 43.4548 71.8196 43.5669 70.9072C43.7903 69.086 43.9436 67.2552 44.1265 65.4292L44.1719 65.4224L44.2172 65.4299C44.264 67.7148 44.5858 69.9857 45.1756 72.1936C45.0546 72.3531 44.8834 72.4954 44.8195 72.6755C44.3197 74.0849 43.8487 75.5052 43.3462 76.9146C43.2774 77.1071 43.0863 77.257 42.9515 77.4261L42.438 75.662L43.0361 73.6208V73.6208Z" fill="#A9AA88"/>
<path fill-rule="evenodd" clip-rule="evenodd" d="M42.9521 77.4269C43.0869 77.2578 43.2787 77.1079 43.3468 76.9154C43.8493 75.506 44.321 74.0863 44.8201 72.6763C44.884 72.4961 45.0545 72.3538 45.1762 72.1943L46.039 74.0877C45.8685 74.3297 45.6334 74.5476 45.5385 74.8171L43.8858 79.6702C43.8177 79.8648 43.5853 80.0023 43.43 80.1666L42.9521 77.4269V77.4269Z" fill="#B6B598"/>
<path fill-rule="evenodd" clip-rule="evenodd" d="M43.4302 80.1658C43.5862 80.0022 43.8179 79.864 43.886 79.6694L45.5387 74.8163C45.6329 74.5475 45.8687 74.3289 46.0392 74.0869L46.8745 74.7999C46.471 75.1986 46.2469 75.6592 46.3816 76.2415L46.1279 77.072C46.0124 77.2144 45.8454 77.3381 45.7883 77.501C45.2115 79.1531 44.6608 80.8141 44.0799 82.4662C44.0063 82.6758 43.8021 82.8402 43.6577 83.0244C43.5828 82.0709 43.5065 81.1194 43.4302 80.1658V80.1658Z" fill="#C2C1A7"/>
<path fill-rule="evenodd" clip-rule="evenodd" d="M43.6584 83.0246C43.8021 82.8397 44.0063 82.6754 44.0805 82.4664C44.6615 80.815 45.2122 79.154 45.789 77.5013C45.846 77.339 46.0124 77.2146 46.1286 77.0723L45.7787 80.8845C45.6852 80.9924 45.5497 81.0866 45.505 81.2124C45.1097 82.322 44.7371 83.4399 44.3404 84.5495C44.2586 84.7785 44.1018 84.9806 43.9795 85.1944C43.8708 85.0521 43.6763 84.9146 43.6673 84.7661C43.6323 84.1879 43.6563 83.6056 43.6584 83.0246V83.0246Z" fill="#CECDB7"/>
<path fill-rule="evenodd" clip-rule="evenodd" d="M43.9785 85.1942C44.1009 84.9797 44.2576 84.7776 44.3395 84.5493C44.7368 83.4404 45.1088 82.3225 45.5041 81.2122C45.5488 81.0864 45.6849 80.9929 45.7777 80.8843L45.786 83.3868L44.9486 85.5345L43.9785 85.1942V85.1942Z" fill="#DBDAC7"/>
<path fill-rule="evenodd" clip-rule="evenodd" d="M44.9487 85.5354L45.7861 83.3877L45.9587 85.9287L44.9487 85.5354V85.5354Z" fill="#EBE9DC"/>
<path fill-rule="evenodd" clip-rule="evenodd" d="M46.3816 76.2425C46.2468 75.6602 46.4703 75.1988 46.8745 74.8008L47.1062 74.9589L46.3816 76.2425V76.2425Z" fill="#CECDB7"/>
<path fill-rule="evenodd" clip-rule="evenodd" d="M44.2172 65.4309L44.1718 65.4233L44.1265 65.4302L44.233 65.0459L44.2172 65.4309V65.4309Z" fill="#4FAA41"/>
</svg>
