<svg width="88" height="88" viewBox="0 0 88 88" fill="none" xmlns="http://www.w3.org/2000/svg">
<path d="M77.5301 20.8548L47.2134 3.25132C45.3014 2.16232 42.812 2.16232 40.8849 3.25132L10.2444 20.8548C8.27131 21.9898 6.875 24.1231 6.875 26.4049V61.5651C6.875 63.8469 8.30775 65.9809 10.2809 67.1221L18.3762 71.7201C22.2454 73.6259 23.6129 73.6259 25.3736 73.6259C31.1025 73.6259 34.375 70.1616 34.375 64.1191V29.4073C34.375 28.9171 34.1199 28.1876 33.6387 28.1876H29.7729C29.2834 28.1876 28.1875 28.9171 28.1875 29.4066V64.1184C28.1875 66.7969 25.7647 69.4624 21.2369 67.1984L12.8721 62.377C12.5806 62.2189 12.375 61.9006 12.375 61.5651V26.4049C12.375 26.0736 12.7566 25.7408 13.0501 25.571L43.5916 7.99782C43.8769 7.83626 44.2963 7.83626 44.5809 7.99782L74.7498 25.5669C75.0386 25.7408 74.9368 26.0633 74.9368 26.4049V61.5651C74.9368 61.9006 75.0626 62.2271 74.7773 62.3887L44.4682 79.9722C44.2083 80.1282 43.8859 80.1282 43.6012 79.9722L35.8277 75.3322C35.5932 75.1961 35.3148 75.1473 35.09 75.2731C32.9271 76.4989 32.5284 76.6619 30.4996 77.3652C30.0004 77.5391 29.2641 77.8409 30.7814 78.6914L40.9551 84.7097C41.9264 85.2708 43.0282 85.5662 44.1499 85.5664C45.2788 85.5664 46.3843 85.2735 47.3584 84.7097L77.5294 67.1221C79.5025 65.9726 80.4375 63.8469 80.4375 61.5651V26.4049C80.4375 24.1231 79.5025 21.9953 77.5301 20.8548V20.8548ZM53.5631 55.9936C45.5015 55.9936 43.7257 53.7695 43.1338 49.7607C43.065 49.3289 42.6986 48.8126 42.2592 48.8126H38.3192C37.8317 48.8126 37.4399 49.4039 37.4399 49.8893C37.4399 55.0221 40.2304 61.2413 53.5638 61.2413C63.2156 61.2413 68.7493 57.4909 68.7493 50.8538C68.7493 44.2731 64.3032 42.5461 54.9429 41.3072C45.4816 40.0566 44.5204 39.4248 44.5204 37.2083C44.5204 35.3809 45.3344 32.9438 52.3401 32.9438C58.5997 32.9438 60.907 34.2871 61.8564 38.5063C61.9376 38.903 62.2999 39.1876 62.7089 39.1876H66.6648C66.9082 39.1876 67.1406 39.0893 67.3111 38.9154C67.4761 38.7284 67.5634 38.4939 67.5414 38.2423C66.9288 30.9768 62.1019 27.5909 52.3394 27.5909C43.6556 27.5909 38.4753 31.258 38.4753 37.4049C38.4753 44.0723 43.6294 45.9148 51.9654 46.7391C61.9376 47.7168 62.7131 49.1743 62.7131 51.1357C62.7131 54.5423 59.9782 55.9936 53.5631 55.9936Z" fill="#83CD29"/>
</svg>
