<svg width="88" height="88" viewBox="0 0 88 88" fill="none" xmlns="http://www.w3.org/2000/svg">
<path d="M43.5815 8.42047C40.6788 8.43422 37.9082 8.68103 35.469 9.11278C28.2846 10.3819 26.9811 13.0384 26.9811 17.9382V24.4083H43.9575V26.565H20.6093C15.6758 26.565 11.3556 29.5302 10.004 35.1732C8.4447 41.6391 8.37595 45.6747 10.004 52.4267C11.2105 57.453 14.0925 61.0335 19.0267 61.0335H24.8643V53.2771C24.8643 47.6733 29.7118 42.7308 35.4696 42.7308H52.4268C57.1472 42.7308 60.9147 38.8437 60.9147 34.1041V17.9389C60.9147 13.3375 57.0331 9.88141 52.4268 9.11347C49.5091 8.62809 46.4834 8.40741 43.5815 8.42047V8.42047ZM34.4006 13.6242C36.1537 13.6242 37.5865 15.0796 37.5865 16.8698C37.5865 18.6525 36.1544 20.0942 34.4006 20.0942C32.6406 20.0942 31.2154 18.6525 31.2154 16.8698C31.2147 15.0796 32.6406 13.6242 34.4006 13.6242V13.6242Z" fill="url(#paint0_linear_132_22)"/>
<path d="M63.0314 26.5651V34.1043C63.0314 39.948 58.0759 44.8671 52.426 44.8671H35.4688C30.8241 44.8671 26.981 48.8429 26.981 53.4945V69.6611C26.981 74.2611 30.9808 76.9678 35.4688 78.2871C40.8423 79.8663 45.9958 80.1523 52.426 78.2871C56.6995 77.049 60.9139 74.5588 60.9139 69.6611V63.1903H43.9574V61.033H69.4031C74.3366 61.033 76.1764 57.592 77.8924 52.4261C79.6648 47.1083 79.5885 41.994 77.8924 35.1726C76.6728 30.2605 74.3442 26.5645 69.4031 26.5645H63.0314V26.5651ZM53.4937 67.5037C55.2544 67.5037 56.6796 68.9454 56.6796 70.7295C56.6796 72.5183 55.2537 73.9738 53.4937 73.9738C51.7406 73.9738 50.3085 72.5183 50.3085 70.7295C50.3085 68.9454 51.7406 67.5037 53.4937 67.5037V67.5037Z" fill="url(#paint1_linear_132_22)"/>
<path opacity="0.444" d="M66.8997 82.2227C66.8997 84.6585 56.7137 86.6337 44.1497 86.6337C31.5849 86.6337 21.3989 84.6585 21.3989 82.2227C21.3989 79.7862 31.5842 77.811 44.1497 77.811C56.7137 77.811 66.8997 79.7855 66.8997 82.2227Z" fill="url(#paint2_radial_132_22)"/>
<defs>
<linearGradient id="paint0_linear_132_22" x1="7.10674" y1="10.4435" x2="46.2625" y2="43.8353" gradientUnits="userSpaceOnUse">
<stop stop-color="#5A9FD4"/>
<stop offset="1" stop-color="#306998"/>
</linearGradient>
<linearGradient id="paint1_linear_132_22" x1="60.9942" y1="64.5924" x2="46.9524" y2="44.9009" gradientUnits="userSpaceOnUse">
<stop stop-color="#FFD43B"/>
<stop offset="1" stop-color="#FFE873"/>
</linearGradient>
<radialGradient id="paint2_radial_132_22" cx="0" cy="0" r="1" gradientUnits="userSpaceOnUse" gradientTransform="translate(44.0577 82.0964) rotate(-90) scale(4.4126 19.397)">
<stop stop-color="#B8B8B8" stop-opacity="0.498"/>
<stop offset="1" stop-color="#7F7F7F" stop-opacity="0"/>
</radialGradient>
</defs>
</svg>
