<svg width="65" height="70" viewBox="0 0 65 70" fill="none" xmlns="http://www.w3.org/2000/svg">
<path d="M57.9906 33.6831L50.4195 38.0227L50.4193 42.7159L57.6005 38.5998L57.6002 44.7828L50.4191 48.8989L50.4189 53.7411L57.99 49.4015L57.9897 55.5846L44.0499 63.5747L44.0509 35.4901L57.9908 27.5L57.9906 33.6831Z" fill="#FEFEFE"/>
<path d="M17.0346 45.8515L8 26.0731L15.6362 30.4496L20.2185 40.7113L24.7997 35.7015L32.4359 40.0781L23.4035 49.5017L23.4045 62.9853L17.0356 59.335L17.0346 45.8515Z" fill="#FEFEFE"/>
<path d="M31.2963 16.4789L49.1037 15.1008L57 19.6261L35.6506 20.6875L33.376 34.1702L25.1222 29.4401L27.5268 18.6391L27.4618 18.6018L16.8359 24.6914L10.4668 21.0414L34.9682 7L41.3373 10.65L31.2313 16.4416L31.2963 16.4789Z" fill="#FEFEFE"/>
</svg>
