<svg width="88" height="89" viewBox="0 0 88 89" fill="none" xmlns="http://www.w3.org/2000/svg">
<path d="M31.2812 88.6875C39.4625 88.6875 46.0625 82.0875 46.0625 73.9062V59.125H31.2812C23.1 59.125 16.5 65.725 16.5 73.9062C16.5 82.0875 23.1 88.6875 31.2812 88.6875Z" fill="#0ACF83"/>
<path d="M16.5 44.3438C16.5 36.1625 23.1 29.5625 31.2812 29.5625H46.0625V59.125H31.2812C23.1 59.125 16.5 52.525 16.5 44.3438Z" fill="#A259FF"/>
<path d="M16.5 14.7812C16.5 6.6 23.1 0 31.2812 0H46.0625V29.5625H31.2812C23.1 29.5625 16.5 22.9625 16.5 14.7812Z" fill="#F24E1E"/>
<path d="M46.0625 0H60.8438C69.025 0 75.625 6.6 75.625 14.7812C75.625 22.9625 69.025 29.5625 60.8438 29.5625H46.0625V0Z" fill="#FF7262"/>
<path d="M75.625 44.3438C75.625 52.525 69.025 59.125 60.8438 59.125C52.6625 59.125 46.0625 52.525 46.0625 44.3438C46.0625 36.1625 52.6625 29.5625 60.8438 29.5625C69.025 29.5625 75.625 36.1625 75.625 44.3438Z" fill="#1ABCFE"/>
</svg>
