<svg width="88" height="88" viewBox="0 0 88 88" fill="none" xmlns="http://www.w3.org/2000/svg">
<path d="M44.0001 51.8376C48.3286 51.8376 51.8376 48.3286 51.8376 44.0001C51.8376 39.6716 48.3286 36.1626 44.0001 36.1626C39.6716 36.1626 36.1626 39.6716 36.1626 44.0001C36.1626 48.3286 39.6716 51.8376 44.0001 51.8376Z" fill="#61DAFB"/>
<path d="M73.7687 31.0751C72.2562 30.5251 70.6749 29.9751 69.0249 29.4938C69.4374 27.8438 69.7812 26.1938 70.0562 24.6126C71.4999 15.5376 69.9187 9.14385 65.5187 6.66885C64.2124 5.9126 62.7687 5.56885 61.1187 5.56885C56.3062 5.56885 50.1874 9.14385 43.9999 15.1251C37.8124 9.14385 31.6937 5.56885 26.8812 5.56885C25.2312 5.56885 23.7874 5.9126 22.4812 6.66885C18.0812 9.2126 16.4999 15.6063 17.9437 24.6126C18.2187 26.1938 18.5624 27.8438 18.9749 29.4938C17.3249 29.9751 15.7437 30.4563 14.2312 31.0751C5.6374 34.3751 0.962402 38.9126 0.962402 44.0001C0.962402 49.0876 5.70615 53.6251 14.2312 56.9251C15.7437 57.4751 17.3249 58.0251 18.9749 58.5063C18.5624 60.1563 18.2187 61.8063 17.9437 63.3876C16.4999 72.4626 18.0812 78.8564 22.4812 81.3314C23.7874 82.0876 25.2312 82.4313 26.8812 82.4313C31.7624 82.4313 37.8812 78.8563 43.9999 72.8751C50.1874 78.8563 56.3062 82.4313 61.1187 82.4313C62.7687 82.4313 64.2124 82.0876 65.5187 81.3314C69.9187 78.7876 71.4999 72.3938 70.0562 63.3876C69.7812 61.8063 69.4374 60.1563 69.0249 58.5063C70.6749 58.0251 72.2562 57.5439 73.7687 56.9251C82.3624 53.6251 87.0374 49.0876 87.0374 44.0001C87.0374 38.9126 82.3624 34.3751 73.7687 31.0751V31.0751ZM63.5937 10.1063C66.4124 11.7563 67.3749 16.8438 66.2062 24.0626C65.9999 25.5063 65.6562 27.0188 65.2437 28.6001C61.6687 27.7751 57.8874 27.2251 53.8999 26.8813C51.5624 23.5813 49.1562 20.6251 46.7499 17.9438C51.8374 12.9251 56.9937 9.4876 61.1874 9.4876C62.0812 9.4876 62.9062 9.69385 63.5937 10.1063V10.1063ZM55.8937 50.8751C54.6562 53.0751 53.2124 55.2751 51.6999 57.4751C49.1561 57.6813 46.6124 57.7501 43.9999 57.7501C41.3187 57.7501 38.7749 57.6813 36.2999 57.4751C34.7874 55.2751 33.4124 53.0751 32.1749 50.8751C30.8687 48.6063 29.6312 46.2688 28.5312 44.0001C29.6312 41.7313 30.8687 39.3938 32.1749 37.1251C33.4124 34.9251 34.8562 32.7251 36.3687 30.5251C38.9124 30.3188 41.4562 30.2501 44.0687 30.2501C46.7499 30.2501 49.2937 30.3188 51.7687 30.5251C53.2812 32.7251 54.6562 34.9251 55.8937 37.1251C57.1999 39.3938 58.4374 41.7313 59.5374 44.0001C58.3687 46.2688 57.1999 48.5376 55.8937 50.8751ZM61.5999 48.6063C62.6312 51.0126 63.4562 53.3501 64.2124 55.6876C61.8749 56.2376 59.3999 56.6501 56.7874 56.9938C57.6124 55.6876 58.5061 54.3126 59.2624 52.8688C60.0874 51.4251 60.8437 49.9813 61.5999 48.6063ZM43.9999 67.2376C42.3499 65.4501 40.7687 63.5251 39.2562 61.5313C40.8374 61.6001 42.4187 61.6688 43.9999 61.6688C45.5812 61.6688 47.1624 61.6001 48.7437 61.5313C47.2312 63.5251 45.6499 65.4501 43.9999 67.2376ZM31.2124 56.9251C28.5999 56.5814 26.1249 56.1688 23.7874 55.6188C24.5437 53.3501 25.3687 50.9438 26.3999 48.5376C27.1562 49.9126 27.9124 51.3563 28.7374 52.7313C29.5624 54.2438 30.3874 55.5501 31.2124 56.9251V56.9251ZM26.3999 39.3938C25.3687 36.9876 24.5437 34.6501 23.7874 32.3126C26.1249 31.7626 28.5999 31.3501 31.2124 31.0063C30.3874 32.3126 29.4937 33.6876 28.7374 35.1313C27.9124 36.5751 27.1562 38.0188 26.3999 39.3938V39.3938ZM43.9999 20.7626C45.6499 22.5501 47.2312 24.4751 48.7437 26.4688C47.1624 26.4001 45.5812 26.3313 43.9999 26.3313C42.4187 26.3313 40.8374 26.4001 39.2562 26.4688C40.7687 24.4751 42.3499 22.5501 43.9999 20.7626ZM59.2624 35.2001L56.7874 31.0751C59.3999 31.4188 61.8749 31.8313 64.2124 32.3813C63.4562 34.6501 62.6312 37.0563 61.5999 39.4626C60.8437 38.0188 60.0874 36.5751 59.2624 35.2001ZM21.7937 24.0626C20.6249 16.8438 21.5874 11.7563 24.4062 10.1063C25.0937 9.69385 25.9187 9.4876 26.8124 9.4876C30.9374 9.4876 36.0937 12.8563 41.2499 17.9438C38.8437 20.5563 36.4374 23.5813 34.0999 26.8813C30.1124 27.2251 26.3312 27.8438 22.7562 28.6001C22.3437 27.0188 22.0687 25.5063 21.7937 24.0626V24.0626ZM4.8124 44.0001C4.8124 40.7688 8.73115 37.3313 15.6062 34.7876C16.9812 34.2376 18.4937 33.7563 20.0062 33.3438C21.1062 36.7813 22.4812 40.4251 24.1312 44.0688C22.4812 47.7126 21.0374 51.2876 20.0062 54.7251C10.5187 51.9751 4.8124 47.8501 4.8124 44.0001ZM24.4062 77.8939C21.5874 76.2439 20.6249 71.1563 21.7937 63.9376C21.9999 62.4938 22.3437 60.9813 22.7562 59.4001C26.3312 60.2251 30.1124 60.7751 34.0999 61.1188C36.4374 64.4188 38.8437 67.3751 41.2499 70.0563C36.1624 75.0751 31.0062 78.5126 26.8124 78.5126C25.9187 78.5126 25.0937 78.3064 24.4062 77.8939ZM66.2062 63.9376C67.3749 71.1563 66.4124 76.2439 63.5937 77.8939C62.9062 78.3064 62.0812 78.5126 61.1874 78.5126C57.0624 78.5126 51.9062 75.1438 46.7499 70.0563C49.1562 67.4438 51.5624 64.4188 53.8999 61.1188C57.8874 60.7751 61.6687 60.1563 65.2437 59.4001C65.6562 60.9813 65.9312 62.4938 66.2062 63.9376V63.9376ZM72.3937 53.2126C71.0187 53.7626 69.5062 54.2438 67.9937 54.6563C66.8937 51.2188 65.5187 47.5751 63.8687 43.9313C65.5187 40.2876 66.9624 36.7126 67.9937 33.2751C77.4812 36.0251 83.1874 40.1501 83.1874 44.0001C83.1874 47.2313 79.1999 50.6688 72.3937 53.2126Z" fill="#61DAFB"/>
</svg>
