<svg width="88" height="88" viewBox="0 0 88 88" fill="none" xmlns="http://www.w3.org/2000/svg">
<path d="M44.0029 17.6016C32.2694 17.6016 24.9386 23.4659 22.0029 35.1995C26.4016 29.3344 31.5365 27.1351 37.4016 28.6016C40.7504 29.4362 43.1436 31.8644 45.7939 34.5553C50.1072 38.9326 55.0999 44.0002 66.0029 44.0002C77.7358 44.0002 85.0673 38.1351 88.0029 26.3988C83.6036 32.2673 78.4694 34.4666 72.6036 33.0002C69.2555 32.1649 66.8651 29.7373 64.2113 27.0464C59.9007 22.6691 54.9094 17.6016 44.0029 17.6016V17.6016ZM22.0029 44.0002C10.2701 44.0002 2.93855 49.8653 0.00292969 61.6016C4.40155 55.7331 9.53581 53.5338 15.4016 55.0002C18.7504 55.8355 21.1436 58.2631 23.7939 60.9539C28.1072 65.3313 33.0999 70.3988 44.0029 70.3988C55.7358 70.3988 63.0673 64.5344 66.0029 52.8009C61.6036 58.6659 56.4694 60.8653 50.6036 59.3988C47.2555 58.5642 44.8651 56.1359 42.2113 53.4451C37.9007 49.0678 32.9094 44.0002 22.0029 44.0002Z" fill="#38B2AC"/>
</svg>
